<svg width="336" height="24" viewBox="0 0 336 24" fill="none" xmlns="http://www.w3.org/2000/svg">
<g clip-path="url(#clip0_98_246)">
<path d="M12 1.99991C8.13 1.99991 5 5.12991 5 8.99991C5 14.2499 12 21.9999 12 21.9999C12 21.9999 19 14.2499 19 8.99991C19 5.12991 15.87 1.99991 12 1.99991ZM12 11.4999C10.62 11.4999 9.5 10.3799 9.5 8.99991C9.5 7.61991 10.62 6.49991 12 6.49991C13.38 6.49991 14.5 7.61991 14.5 8.99991C14.5 10.3799 13.38 11.4999 12 11.4999Z" fill="#848484"/>
</g>
<path d="M34.864 18.112C34.1173 18.112 33.4453 17.984 32.848 17.728C32.2507 17.4613 31.7813 17.088 31.44 16.608C31.0987 16.128 30.928 15.568 30.928 14.928H32.88C32.9227 15.408 33.1093 15.8027 33.44 16.112C33.7813 16.4213 34.256 16.576 34.864 16.576C35.4933 16.576 35.984 16.4267 36.336 16.128C36.688 15.8187 36.864 15.424 36.864 14.944C36.864 14.5707 36.752 14.2667 36.528 14.032C36.3147 13.7973 36.0427 13.616 35.712 13.488C35.392 13.36 34.944 13.2213 34.368 13.072C33.6427 12.88 33.0507 12.688 32.592 12.496C32.144 12.2933 31.76 11.984 31.44 11.568C31.12 11.152 30.96 10.5973 30.96 9.904C30.96 9.264 31.12 8.704 31.44 8.224C31.76 7.744 32.208 7.376 32.784 7.12C33.36 6.864 34.0267 6.736 34.784 6.736C35.8613 6.736 36.7413 7.008 37.424 7.552C38.1173 8.08533 38.5013 8.82133 38.576 9.76H36.56C36.528 9.35467 36.336 9.008 35.984 8.72C35.632 8.432 35.168 8.288 34.592 8.288C34.0693 8.288 33.6427 8.42133 33.312 8.688C32.9813 8.95467 32.816 9.33867 32.816 9.84C32.816 10.1813 32.9173 10.464 33.12 10.688C33.3333 10.9013 33.6 11.072 33.92 11.2C34.24 11.328 34.6773 11.4667 35.232 11.616C35.968 11.8187 36.5653 12.0213 37.024 12.224C37.4933 12.4267 37.888 12.7413 38.208 13.168C38.5387 13.584 38.704 14.144 38.704 14.848C38.704 15.4133 38.5493 15.9467 38.24 16.448C37.9413 16.9493 37.4987 17.3547 36.912 17.664C36.336 17.9627 35.6533 18.112 34.864 18.112ZM44.6803 18.144C43.8483 18.144 43.0963 17.9573 42.4243 17.584C41.7523 17.2 41.2243 16.6667 40.8403 15.984C40.4563 15.2907 40.2643 14.4907 40.2643 13.584C40.2643 12.688 40.4616 11.8933 40.8563 11.2C41.2509 10.5067 41.7896 9.97333 42.4723 9.6C43.1549 9.22667 43.9176 9.04 44.7603 9.04C45.6029 9.04 46.3656 9.22667 47.0483 9.6C47.7309 9.97333 48.2696 10.5067 48.6643 11.2C49.0589 11.8933 49.2563 12.688 49.2563 13.584C49.2563 14.48 49.0536 15.2747 48.6483 15.968C48.2429 16.6613 47.6883 17.2 46.9843 17.584C46.2909 17.9573 45.5229 18.144 44.6803 18.144ZM44.6803 16.56C45.1496 16.56 45.5869 16.448 45.9923 16.224C46.4083 16 46.7443 15.664 47.0003 15.216C47.2563 14.768 47.3843 14.224 47.3843 13.584C47.3843 12.944 47.2616 12.4053 47.0163 11.968C46.7709 11.52 46.4456 11.184 46.0403 10.96C45.6349 10.736 45.1976 10.624 44.7283 10.624C44.2589 10.624 43.8216 10.736 43.4163 10.96C43.0216 11.184 42.7069 11.52 42.4723 11.968C42.2376 12.4053 42.1203 12.944 42.1203 13.584C42.1203 14.5333 42.3603 15.2693 42.8403 15.792C43.3309 16.304 43.9443 16.56 44.6803 16.56ZM52.8834 10.464C53.15 10.016 53.502 9.66933 53.9394 9.424C54.3874 9.168 54.9154 9.04 55.5234 9.04V10.928H55.0594C54.3447 10.928 53.8007 11.1093 53.4274 11.472C53.0647 11.8347 52.8834 12.464 52.8834 13.36V18H51.0594V9.184H52.8834V10.464ZM61.024 18.144C60.192 18.144 59.44 17.9573 58.768 17.584C58.096 17.2 57.568 16.6667 57.184 15.984C56.8 15.2907 56.608 14.4907 56.608 13.584C56.608 12.688 56.8053 11.8933 57.2 11.2C57.5947 10.5067 58.1333 9.97333 58.816 9.6C59.4987 9.22667 60.2613 9.04 61.104 9.04C61.9467 9.04 62.7093 9.22667 63.392 9.6C64.0747 9.97333 64.6133 10.5067 65.008 11.2C65.4027 11.8933 65.6 12.688 65.6 13.584C65.6 14.48 65.3973 15.2747 64.992 15.968C64.5867 16.6613 64.032 17.2 63.328 17.584C62.6347 17.9573 61.8667 18.144 61.024 18.144ZM61.024 16.56C61.4933 16.56 61.9307 16.448 62.336 16.224C62.752 16 63.088 15.664 63.344 15.216C63.6 14.768 63.728 14.224 63.728 13.584C63.728 12.944 63.6053 12.4053 63.36 11.968C63.1147 11.52 62.7893 11.184 62.384 10.96C61.9787 10.736 61.5413 10.624 61.072 10.624C60.6027 10.624 60.1653 10.736 59.76 10.96C59.3653 11.184 59.0507 11.52 58.816 11.968C58.5813 12.4053 58.464 12.944 58.464 13.584C58.464 14.5333 58.704 15.2693 59.184 15.792C59.6747 16.304 60.288 16.56 61.024 16.56ZM71.8511 9.04C72.5445 9.04 73.1631 9.184 73.7071 9.472C74.2618 9.76 74.6938 10.1867 75.0031 10.752C75.3125 11.3173 75.4671 12 75.4671 12.8V18H73.6591V13.072C73.6591 12.2827 73.4618 11.68 73.0671 11.264C72.6725 10.8373 72.1338 10.624 71.4511 10.624C70.7685 10.624 70.2245 10.8373 69.8191 11.264C69.4245 11.68 69.2271 12.2827 69.2271 13.072V18H67.4031V9.184H69.2271V10.192C69.5258 9.82933 69.9045 9.54667 70.3631 9.344C70.8325 9.14133 71.3285 9.04 71.8511 9.04ZM81.3458 9.04C82.0284 9.04 82.6311 9.17867 83.1538 9.456C83.6871 9.72267 84.1031 10.0587 84.4018 10.464V9.184H86.2418V18.144C86.2418 18.9547 86.0711 19.6747 85.7298 20.304C85.3884 20.944 84.8924 21.4453 84.2418 21.808C83.6018 22.1707 82.8338 22.352 81.9378 22.352C80.7431 22.352 79.7511 22.0693 78.9618 21.504C78.1724 20.9493 77.7244 20.192 77.6178 19.232H79.4258C79.5644 19.6907 79.8578 20.0587 80.3058 20.336C80.7644 20.624 81.3084 20.768 81.9378 20.768C82.6738 20.768 83.2658 20.544 83.7138 20.096C84.1724 19.648 84.4018 18.9973 84.4018 18.144V16.672C84.0924 17.088 83.6711 17.44 83.1378 17.728C82.6151 18.0053 82.0178 18.144 81.3458 18.144C80.5778 18.144 79.8738 17.952 79.2338 17.568C78.6044 17.1733 78.1031 16.6293 77.7298 15.936C77.3671 15.232 77.1858 14.4373 77.1858 13.552C77.1858 12.6667 77.3671 11.8827 77.7298 11.2C78.1031 10.5173 78.6044 9.98933 79.2338 9.616C79.8738 9.232 80.5778 9.04 81.3458 9.04ZM84.4018 13.584C84.4018 12.976 84.2738 12.448 84.0178 12C83.7724 11.552 83.4471 11.2107 83.0418 10.976C82.6364 10.7413 82.1991 10.624 81.7298 10.624C81.2604 10.624 80.8231 10.7413 80.4178 10.976C80.0124 11.2 79.6818 11.536 79.4258 11.984C79.1804 12.4213 79.0578 12.944 79.0578 13.552C79.0578 14.16 79.1804 14.6933 79.4258 15.152C79.6818 15.6107 80.0124 15.9627 80.4178 16.208C80.8338 16.4427 81.2711 16.56 81.7298 16.56C82.1991 16.56 82.6364 16.4427 83.0418 16.208C83.4471 15.9733 83.7724 15.632 84.0178 15.184C84.2738 14.7253 84.4018 14.192 84.4018 13.584ZM90.6375 15.808L88.7015 20.224H87.5175L88.6535 15.808H90.6375ZM104.164 10.192C104.164 10.7573 104.03 11.2907 103.764 11.792C103.497 12.2933 103.07 12.704 102.484 13.024C101.897 13.3333 101.145 13.488 100.228 13.488H98.2115V18H96.3875V6.88H100.228C101.081 6.88 101.801 7.02933 102.388 7.328C102.985 7.616 103.428 8.01067 103.716 8.512C104.014 9.01333 104.164 9.57333 104.164 10.192ZM100.228 12C100.921 12 101.438 11.8453 101.78 11.536C102.121 11.216 102.292 10.768 102.292 10.192C102.292 8.976 101.604 8.368 100.228 8.368H98.2115V12H100.228ZM105.295 13.552C105.295 12.6667 105.476 11.8827 105.839 11.2C106.212 10.5173 106.714 9.98933 107.343 9.616C107.983 9.232 108.687 9.04 109.455 9.04C110.148 9.04 110.751 9.17867 111.263 9.456C111.786 9.72267 112.202 10.0587 112.511 10.464V9.184H114.351V18H112.511V16.688C112.202 17.104 111.78 17.4507 111.247 17.728C110.714 18.0053 110.106 18.144 109.423 18.144C108.666 18.144 107.972 17.952 107.343 17.568C106.714 17.1733 106.212 16.6293 105.839 15.936C105.476 15.232 105.295 14.4373 105.295 13.552ZM112.511 13.584C112.511 12.976 112.383 12.448 112.127 12C111.882 11.552 111.556 11.2107 111.151 10.976C110.746 10.7413 110.308 10.624 109.839 10.624C109.37 10.624 108.932 10.7413 108.527 10.976C108.122 11.2 107.791 11.536 107.535 11.984C107.29 12.4213 107.167 12.944 107.167 13.552C107.167 14.16 107.29 14.6933 107.535 15.152C107.791 15.6107 108.122 15.9627 108.527 16.208C108.943 16.4427 109.38 16.56 109.839 16.56C110.308 16.56 110.746 16.4427 111.151 16.208C111.556 15.9733 111.882 15.632 112.127 15.184C112.383 14.7253 112.511 14.192 112.511 13.584ZM118.571 10.48C118.88 10.0747 119.302 9.73333 119.835 9.456C120.368 9.17867 120.971 9.04 121.643 9.04C122.411 9.04 123.11 9.232 123.739 9.616C124.379 9.98933 124.88 10.5173 125.243 11.2C125.606 11.8827 125.787 12.6667 125.787 13.552C125.787 14.4373 125.606 15.232 125.243 15.936C124.88 16.6293 124.379 17.1733 123.739 17.568C123.11 17.952 122.411 18.144 121.643 18.144C120.971 18.144 120.374 18.0107 119.851 17.744C119.328 17.4667 118.902 17.1253 118.571 16.72V22.192H116.747V9.184H118.571V10.48ZM123.931 13.552C123.931 12.944 123.803 12.4213 123.547 11.984C123.302 11.536 122.971 11.2 122.555 10.976C122.15 10.7413 121.712 10.624 121.243 10.624C120.784 10.624 120.347 10.7413 119.931 10.976C119.526 11.2107 119.195 11.552 118.939 12C118.694 12.448 118.571 12.976 118.571 13.584C118.571 14.192 118.694 14.7253 118.939 15.184C119.195 15.632 119.526 15.9733 119.931 16.208C120.347 16.4427 120.784 16.56 121.243 16.56C121.712 16.56 122.15 16.4427 122.555 16.208C122.971 15.9627 123.302 15.6107 123.547 15.152C123.803 14.6933 123.931 14.16 123.931 13.552ZM135.575 9.184V18H133.751V16.96C133.463 17.3227 133.084 17.6107 132.615 17.824C132.156 18.0267 131.665 18.128 131.143 18.128C130.449 18.128 129.825 17.984 129.271 17.696C128.727 17.408 128.295 16.9813 127.975 16.416C127.665 15.8507 127.511 15.168 127.511 14.368V9.184H129.319V14.096C129.319 14.8853 129.516 15.4933 129.911 15.92C130.305 16.336 130.844 16.544 131.527 16.544C132.209 16.544 132.748 16.336 133.143 15.92C133.548 15.4933 133.751 14.8853 133.751 14.096V9.184H135.575ZM137.373 13.552C137.373 12.6667 137.555 11.8827 137.917 11.2C138.291 10.5173 138.792 9.98933 139.421 9.616C140.061 9.232 140.765 9.04 141.533 9.04C142.227 9.04 142.829 9.17867 143.341 9.456C143.864 9.72267 144.28 10.0587 144.589 10.464V9.184H146.429V18H144.589V16.688C144.28 17.104 143.859 17.4507 143.325 17.728C142.792 18.0053 142.184 18.144 141.501 18.144C140.744 18.144 140.051 17.952 139.421 17.568C138.792 17.1733 138.291 16.6293 137.917 15.936C137.555 15.232 137.373 14.4373 137.373 13.552ZM144.589 13.584C144.589 12.976 144.461 12.448 144.205 12C143.96 11.552 143.635 11.2107 143.229 10.976C142.824 10.7413 142.387 10.624 141.917 10.624C141.448 10.624 141.011 10.7413 140.605 10.976C140.2 11.2 139.869 11.536 139.613 11.984C139.368 12.4213 139.245 12.944 139.245 13.552C139.245 14.16 139.368 14.6933 139.613 15.152C139.869 15.6107 140.2 15.9627 140.605 16.208C141.021 16.4427 141.459 16.56 141.917 16.56C142.387 16.56 142.824 16.4427 143.229 16.208C143.635 15.9733 143.96 15.632 144.205 15.184C144.461 14.7253 144.589 14.192 144.589 13.584ZM158.933 12.288C159.531 12.3947 160.037 12.7093 160.453 13.232C160.869 13.7547 161.077 14.3467 161.077 15.008C161.077 15.5733 160.928 16.0853 160.629 16.544C160.341 16.992 159.92 17.3493 159.365 17.616C158.811 17.872 158.165 18 157.429 18H152.981V6.88H157.221C157.979 6.88 158.629 7.008 159.173 7.264C159.717 7.52 160.128 7.86667 160.405 8.304C160.683 8.73067 160.821 9.21067 160.821 9.744C160.821 10.384 160.651 10.9173 160.309 11.344C159.968 11.7707 159.509 12.0853 158.933 12.288ZM154.805 11.552H157.061C157.659 11.552 158.123 11.4187 158.453 11.152C158.795 10.8747 158.965 10.48 158.965 9.968C158.965 9.46667 158.795 9.07733 158.453 8.8C158.123 8.512 157.659 8.368 157.061 8.368H154.805V11.552ZM157.269 16.512C157.888 16.512 158.373 16.3627 158.725 16.064C159.077 15.7653 159.253 15.3493 159.253 14.816C159.253 14.272 159.067 13.84 158.693 13.52C158.32 13.2 157.824 13.04 157.205 13.04H154.805V16.512H157.269ZM162.451 13.552C162.451 12.6667 162.633 11.8827 162.995 11.2C163.369 10.5173 163.87 9.98933 164.499 9.616C165.139 9.232 165.843 9.04 166.611 9.04C167.305 9.04 167.907 9.17867 168.419 9.456C168.942 9.72267 169.358 10.0587 169.667 10.464V9.184H171.507V18H169.667V16.688C169.358 17.104 168.937 17.4507 168.403 17.728C167.87 18.0053 167.262 18.144 166.579 18.144C165.822 18.144 165.129 17.952 164.499 17.568C163.87 17.1733 163.369 16.6293 162.995 15.936C162.633 15.232 162.451 14.4373 162.451 13.552ZM169.667 13.584C169.667 12.976 169.539 12.448 169.283 12C169.038 11.552 168.713 11.2107 168.307 10.976C167.902 10.7413 167.465 10.624 166.995 10.624C166.526 10.624 166.089 10.7413 165.683 10.976C165.278 11.2 164.947 11.536 164.691 11.984C164.446 12.4213 164.323 12.944 164.323 13.552C164.323 14.16 164.446 14.6933 164.691 15.152C164.947 15.6107 165.278 15.9627 165.683 16.208C166.099 16.4427 166.537 16.56 166.995 16.56C167.465 16.56 167.902 16.4427 168.307 16.208C168.713 15.9733 169.038 15.632 169.283 15.184C169.539 14.7253 169.667 14.192 169.667 13.584ZM175.727 10.464C175.994 10.016 176.346 9.66933 176.783 9.424C177.231 9.168 177.759 9.04 178.367 9.04V10.928H177.903C177.188 10.928 176.644 11.1093 176.271 11.472C175.908 11.8347 175.727 12.464 175.727 13.36V18H173.903V9.184H175.727V10.464ZM179.436 13.552C179.436 12.6667 179.617 11.8827 179.98 11.2C180.353 10.5173 180.854 9.98933 181.484 9.616C182.124 9.232 182.828 9.04 183.596 9.04C184.289 9.04 184.892 9.17867 185.404 9.456C185.926 9.72267 186.342 10.0587 186.652 10.464V9.184H188.492V18H186.652V16.688C186.342 17.104 185.921 17.4507 185.388 17.728C184.854 18.0053 184.246 18.144 183.564 18.144C182.806 18.144 182.113 17.952 181.484 17.568C180.854 17.1733 180.353 16.6293 179.98 15.936C179.617 15.232 179.436 14.4373 179.436 13.552ZM186.652 13.584C186.652 12.976 186.524 12.448 186.268 12C186.022 11.552 185.697 11.2107 185.292 10.976C184.886 10.7413 184.449 10.624 183.98 10.624C183.51 10.624 183.073 10.7413 182.668 10.976C182.262 11.2 181.932 11.536 181.676 11.984C181.43 12.4213 181.308 12.944 181.308 13.552C181.308 14.16 181.43 14.6933 181.676 15.152C181.932 15.6107 182.262 15.9627 182.668 16.208C183.084 16.4427 183.521 16.56 183.98 16.56C184.449 16.56 184.886 16.4427 185.292 16.208C185.697 15.9733 186.022 15.632 186.268 15.184C186.524 14.7253 186.652 14.192 186.652 13.584ZM193.016 10.672V15.552C193.016 15.8827 193.09 16.1227 193.24 16.272C193.4 16.4107 193.666 16.48 194.04 16.48H195.16V18H193.72C192.898 18 192.269 17.808 191.832 17.424C191.394 17.04 191.176 16.416 191.176 15.552V10.672H190.136V9.184H191.176V6.992H193.016V9.184H195.16V10.672H193.016Z" fill="#848484"/>
<defs>
<clipPath id="clip0_98_246">
<rect width="24" height="24" fill="white"/>
</clipPath>
</defs>
</svg>
