<svg width="336" height="24" viewBox="0 0 336 24" fill="none" xmlns="http://www.w3.org/2000/svg">
<g clip-path="url(#clip0_98_253)">
<path d="M12 1.99991C8.13 1.99991 5 5.12991 5 8.99991C5 14.2499 12 21.9999 12 21.9999C12 21.9999 19 14.2499 19 8.99991C19 5.12991 15.87 1.99991 12 1.99991ZM12 11.4999C10.62 11.4999 9.5 10.3799 9.5 8.99991C9.5 7.61991 10.62 6.49991 12 6.49991C13.38 6.49991 14.5 7.61991 14.5 8.99991C14.5 10.3799 13.38 11.4999 12 11.4999Z" fill="#848484"/>
</g>
<path d="M39.248 10.08C38.96 9.52533 38.56 9.10933 38.048 8.832C37.536 8.544 36.944 8.4 36.272 8.4C35.536 8.4 34.88 8.56533 34.304 8.896C33.728 9.22667 33.2747 9.696 32.944 10.304C32.624 10.912 32.464 11.616 32.464 12.416C32.464 13.216 32.624 13.9253 32.944 14.544C33.2747 15.152 33.728 15.6213 34.304 15.952C34.88 16.2827 35.536 16.448 36.272 16.448C37.264 16.448 38.0693 16.1707 38.688 15.616C39.3067 15.0613 39.6853 14.3093 39.824 13.36H35.648V11.904H41.776V13.328C41.6587 14.192 41.3493 14.9867 40.848 15.712C40.3573 16.4373 39.712 17.0187 38.912 17.456C38.1227 17.8827 37.2427 18.096 36.272 18.096C35.2267 18.096 34.272 17.856 33.408 17.376C32.544 16.8853 31.856 16.208 31.344 15.344C30.8427 14.48 30.592 13.504 30.592 12.416C30.592 11.328 30.8427 10.352 31.344 9.488C31.856 8.624 32.544 7.952 33.408 7.472C34.2827 6.98133 35.2373 6.736 36.272 6.736C37.456 6.736 38.5067 7.02933 39.424 7.616C40.352 8.192 41.024 9.01333 41.44 10.08H39.248ZM47.399 18.144C46.567 18.144 45.815 17.9573 45.143 17.584C44.471 17.2 43.943 16.6667 43.559 15.984C43.175 15.2907 42.983 14.4907 42.983 13.584C42.983 12.688 43.1803 11.8933 43.575 11.2C43.9697 10.5067 44.5083 9.97333 45.191 9.6C45.8737 9.22667 46.6363 9.04 47.479 9.04C48.3217 9.04 49.0843 9.22667 49.767 9.6C50.4497 9.97333 50.9883 10.5067 51.383 11.2C51.7777 11.8933 51.975 12.688 51.975 13.584C51.975 14.48 51.7723 15.2747 51.367 15.968C50.9617 16.6613 50.407 17.2 49.703 17.584C49.0097 17.9573 48.2417 18.144 47.399 18.144ZM47.399 16.56C47.8683 16.56 48.3057 16.448 48.711 16.224C49.127 16 49.463 15.664 49.719 15.216C49.975 14.768 50.103 14.224 50.103 13.584C50.103 12.944 49.9803 12.4053 49.735 11.968C49.4897 11.52 49.1643 11.184 48.759 10.96C48.3537 10.736 47.9163 10.624 47.447 10.624C46.9777 10.624 46.5403 10.736 46.135 10.96C45.7403 11.184 45.4257 11.52 45.191 11.968C44.9563 12.4053 44.839 12.944 44.839 13.584C44.839 14.5333 45.079 15.2693 45.559 15.792C46.0497 16.304 46.663 16.56 47.399 16.56ZM65.6181 9.184L62.8821 18H60.9621L59.1861 11.488L57.4101 18H55.4901L52.7381 9.184H54.5941L56.4341 16.272L58.3061 9.184H60.2101L62.0021 16.24L63.8261 9.184H65.6181ZM66.3733 13.552C66.3733 12.6667 66.5546 11.8827 66.9173 11.2C67.2906 10.5173 67.7919 9.98933 68.4213 9.616C69.0613 9.232 69.7653 9.04 70.5333 9.04C71.2266 9.04 71.8293 9.17867 72.3413 9.456C72.8639 9.72267 73.2799 10.0587 73.5893 10.464V9.184H75.4293V18H73.5893V16.688C73.2799 17.104 72.8586 17.4507 72.3253 17.728C71.7919 18.0053 71.1839 18.144 70.5013 18.144C69.7439 18.144 69.0506 17.952 68.4213 17.568C67.7919 17.1733 67.2906 16.6293 66.9173 15.936C66.5546 15.232 66.3733 14.4373 66.3733 13.552ZM73.5893 13.584C73.5893 12.976 73.4613 12.448 73.2053 12C72.9599 11.552 72.6346 11.2107 72.2293 10.976C71.8239 10.7413 71.3866 10.624 70.9173 10.624C70.4479 10.624 70.0106 10.7413 69.6053 10.976C69.1999 11.2 68.8693 11.536 68.6133 11.984C68.3679 12.4213 68.2453 12.944 68.2453 13.552C68.2453 14.16 68.3679 14.6933 68.6133 15.152C68.8693 15.6107 69.1999 15.9627 69.6053 16.208C70.0213 16.4427 70.4586 16.56 70.9173 16.56C71.3866 16.56 71.8239 16.4427 72.2293 16.208C72.6346 15.9733 72.9599 15.632 73.2053 15.184C73.4613 14.7253 73.5893 14.192 73.5893 13.584ZM79.825 15.808L77.889 20.224H76.705L77.841 15.808H79.825ZM89.239 18.112C88.4923 18.112 87.8203 17.984 87.223 17.728C86.6257 17.4613 86.1563 17.088 85.815 16.608C85.4737 16.128 85.303 15.568 85.303 14.928H87.255C87.2977 15.408 87.4843 15.8027 87.815 16.112C88.1563 16.4213 88.631 16.576 89.239 16.576C89.8683 16.576 90.359 16.4267 90.711 16.128C91.063 15.8187 91.239 15.424 91.239 14.944C91.239 14.5707 91.127 14.2667 90.903 14.032C90.6897 13.7973 90.4177 13.616 90.087 13.488C89.767 13.36 89.319 13.2213 88.743 13.072C88.0177 12.88 87.4257 12.688 86.967 12.496C86.519 12.2933 86.135 11.984 85.815 11.568C85.495 11.152 85.335 10.5973 85.335 9.904C85.335 9.264 85.495 8.704 85.815 8.224C86.135 7.744 86.583 7.376 87.159 7.12C87.735 6.864 88.4017 6.736 89.159 6.736C90.2363 6.736 91.1163 7.008 91.799 7.552C92.4923 8.08533 92.8763 8.82133 92.951 9.76H90.935C90.903 9.35467 90.711 9.008 90.359 8.72C90.007 8.432 89.543 8.288 88.967 8.288C88.4443 8.288 88.0177 8.42133 87.687 8.688C87.3563 8.95467 87.191 9.33867 87.191 9.84C87.191 10.1813 87.2923 10.464 87.495 10.688C87.7083 10.9013 87.975 11.072 88.295 11.2C88.615 11.328 89.0523 11.4667 89.607 11.616C90.343 11.8187 90.9403 12.0213 91.399 12.224C91.8683 12.4267 92.263 12.7413 92.583 13.168C92.9137 13.584 93.079 14.144 93.079 14.848C93.079 15.4133 92.9243 15.9467 92.615 16.448C92.3163 16.9493 91.8737 17.3547 91.287 17.664C90.711 17.9627 90.0283 18.112 89.239 18.112ZM103.215 9.184V18H101.391V16.96C101.103 17.3227 100.725 17.6107 100.255 17.824C99.7966 18.0267 99.3059 18.128 98.7833 18.128C98.0899 18.128 97.4659 17.984 96.9113 17.696C96.3673 17.408 95.9353 16.9813 95.6153 16.416C95.3059 15.8507 95.1513 15.168 95.1513 14.368V9.184H96.9593V14.096C96.9593 14.8853 97.1566 15.4933 97.5513 15.92C97.9459 16.336 98.4846 16.544 99.1673 16.544C99.8499 16.544 100.389 16.336 100.783 15.92C101.189 15.4933 101.391 14.8853 101.391 14.096V9.184H103.215ZM107.446 6.16V18H105.622V6.16H107.446ZM109.233 13.552C109.233 12.6667 109.414 11.8827 109.777 11.2C110.15 10.5173 110.651 9.98933 111.281 9.616C111.921 9.232 112.625 9.04 113.393 9.04C114.086 9.04 114.689 9.17867 115.201 9.456C115.723 9.72267 116.139 10.0587 116.449 10.464V9.184H118.289V18H116.449V16.688C116.139 17.104 115.718 17.4507 115.185 17.728C114.651 18.0053 114.043 18.144 113.361 18.144C112.603 18.144 111.91 17.952 111.281 17.568C110.651 17.1733 110.15 16.6293 109.777 15.936C109.414 15.232 109.233 14.4373 109.233 13.552ZM116.449 13.584C116.449 12.976 116.321 12.448 116.065 12C115.819 11.552 115.494 11.2107 115.089 10.976C114.683 10.7413 114.246 10.624 113.777 10.624C113.307 10.624 112.87 10.7413 112.465 10.976C112.059 11.2 111.729 11.536 111.473 11.984C111.227 12.4213 111.105 12.944 111.105 13.552C111.105 14.16 111.227 14.6933 111.473 15.152C111.729 15.6107 112.059 15.9627 112.465 16.208C112.881 16.4427 113.318 16.56 113.777 16.56C114.246 16.56 114.683 16.4427 115.089 16.208C115.494 15.9733 115.819 15.632 116.065 15.184C116.321 14.7253 116.449 14.192 116.449 13.584ZM132.524 9.184L129.788 18H127.868L126.092 11.488L124.316 18H122.396L119.644 9.184H121.5L123.34 16.272L125.212 9.184H127.116L128.908 16.24L130.732 9.184H132.524ZM141.968 13.376C141.968 13.7067 141.946 14.0053 141.904 14.272H135.168C135.221 14.976 135.482 15.5413 135.952 15.968C136.421 16.3947 136.997 16.608 137.68 16.608C138.661 16.608 139.354 16.1973 139.76 15.376H141.727C141.461 16.1867 140.976 16.8533 140.272 17.376C139.578 17.888 138.714 18.144 137.68 18.144C136.837 18.144 136.08 17.9573 135.408 17.584C134.746 17.2 134.224 16.6667 133.84 15.984C133.466 15.2907 133.28 14.4907 133.28 13.584C133.28 12.6773 133.461 11.8827 133.824 11.2C134.197 10.5067 134.714 9.97333 135.376 9.6C136.048 9.22667 136.816 9.04 137.68 9.04C138.512 9.04 139.253 9.22133 139.904 9.584C140.554 9.94667 141.061 10.4587 141.424 11.12C141.786 11.7707 141.968 12.5227 141.968 13.376ZM140.064 12.8C140.053 12.128 139.813 11.5893 139.344 11.184C138.874 10.7787 138.293 10.576 137.6 10.576C136.97 10.576 136.432 10.7787 135.984 11.184C135.536 11.5787 135.269 12.1173 135.184 12.8H140.064ZM146.963 18.144C146.269 18.144 145.645 18.0213 145.091 17.776C144.547 17.52 144.115 17.1787 143.795 16.752C143.475 16.3147 143.304 15.8293 143.283 15.296H145.171C145.203 15.6693 145.379 15.984 145.699 16.24C146.029 16.4853 146.44 16.608 146.931 16.608C147.443 16.608 147.837 16.512 148.115 16.32C148.403 16.1173 148.547 15.8613 148.547 15.552C148.547 15.2213 148.387 14.976 148.067 14.816C147.757 14.656 147.261 14.48 146.579 14.288C145.917 14.1067 145.379 13.9307 144.963 13.76C144.547 13.5893 144.184 13.328 143.875 12.976C143.576 12.624 143.427 12.16 143.427 11.584C143.427 11.1147 143.565 10.688 143.843 10.304C144.12 9.90933 144.515 9.6 145.027 9.376C145.549 9.152 146.147 9.04 146.819 9.04C147.821 9.04 148.627 9.296 149.235 9.808C149.853 10.3093 150.184 10.9973 150.227 11.872H148.403C148.371 11.4773 148.211 11.1627 147.923 10.928C147.635 10.6933 147.245 10.576 146.755 10.576C146.275 10.576 145.907 10.6667 145.651 10.848C145.395 11.0293 145.267 11.2693 145.267 11.568C145.267 11.8027 145.352 12 145.523 12.16C145.693 12.32 145.901 12.448 146.147 12.544C146.392 12.6293 146.755 12.7413 147.235 12.88C147.875 13.0507 148.397 13.2267 148.803 13.408C149.219 13.5787 149.576 13.8347 149.875 14.176C150.173 14.5173 150.328 14.9707 150.339 15.536C150.339 16.0373 150.2 16.4853 149.923 16.88C149.645 17.2747 149.251 17.584 148.739 17.808C148.237 18.032 147.645 18.144 146.963 18.144ZM153.237 8.016C152.907 8.016 152.629 7.904 152.405 7.68C152.181 7.456 152.069 7.17867 152.069 6.848C152.069 6.51733 152.181 6.24 152.405 6.016C152.629 5.792 152.907 5.68 153.237 5.68C153.557 5.68 153.829 5.792 154.053 6.016C154.277 6.24 154.389 6.51733 154.389 6.848C154.389 7.17867 154.277 7.456 154.053 7.68C153.829 7.904 153.557 8.016 153.237 8.016ZM154.133 9.184V18H152.309V9.184H154.133ZM164.348 18.112C163.602 18.112 162.93 17.984 162.332 17.728C161.735 17.4613 161.266 17.088 160.924 16.608C160.583 16.128 160.412 15.568 160.412 14.928H162.364C162.407 15.408 162.594 15.8027 162.924 16.112C163.266 16.4213 163.74 16.576 164.348 16.576C164.978 16.576 165.468 16.4267 165.82 16.128C166.172 15.8187 166.348 15.424 166.348 14.944C166.348 14.5707 166.236 14.2667 166.012 14.032C165.799 13.7973 165.527 13.616 165.196 13.488C164.876 13.36 164.428 13.2213 163.852 13.072C163.127 12.88 162.535 12.688 162.076 12.496C161.628 12.2933 161.244 11.984 160.924 11.568C160.604 11.152 160.444 10.5973 160.444 9.904C160.444 9.264 160.604 8.704 160.924 8.224C161.244 7.744 161.692 7.376 162.268 7.12C162.844 6.864 163.511 6.736 164.268 6.736C165.346 6.736 166.226 7.008 166.908 7.552C167.602 8.08533 167.986 8.82133 168.06 9.76H166.044C166.012 9.35467 165.82 9.008 165.468 8.72C165.116 8.432 164.652 8.288 164.076 8.288C163.554 8.288 163.127 8.42133 162.796 8.688C162.466 8.95467 162.3 9.33867 162.3 9.84C162.3 10.1813 162.402 10.464 162.604 10.688C162.818 10.9013 163.084 11.072 163.404 11.2C163.724 11.328 164.162 11.4667 164.716 11.616C165.452 11.8187 166.05 12.0213 166.508 12.224C166.978 12.4267 167.372 12.7413 167.692 13.168C168.023 13.584 168.188 14.144 168.188 14.848C168.188 15.4133 168.034 15.9467 167.724 16.448C167.426 16.9493 166.983 17.3547 166.396 17.664C165.82 17.9627 165.138 18.112 164.348 18.112ZM178.421 13.376C178.421 13.7067 178.399 14.0053 178.357 14.272H171.621C171.674 14.976 171.935 15.5413 172.405 15.968C172.874 16.3947 173.45 16.608 174.133 16.608C175.114 16.608 175.807 16.1973 176.213 15.376H178.181C177.914 16.1867 177.429 16.8533 176.725 17.376C176.031 17.888 175.167 18.144 174.133 18.144C173.29 18.144 172.533 17.9573 171.861 17.584C171.199 17.2 170.677 16.6667 170.293 15.984C169.919 15.2907 169.733 14.4907 169.733 13.584C169.733 12.6773 169.914 11.8827 170.277 11.2C170.65 10.5067 171.167 9.97333 171.829 9.6C172.501 9.22667 173.269 9.04 174.133 9.04C174.965 9.04 175.706 9.22133 176.357 9.584C177.007 9.94667 177.514 10.4587 177.877 11.12C178.239 11.7707 178.421 12.5227 178.421 13.376ZM176.517 12.8C176.506 12.128 176.266 11.5893 175.797 11.184C175.327 10.7787 174.746 10.576 174.053 10.576C173.423 10.576 172.885 10.7787 172.437 11.184C171.989 11.5787 171.722 12.1173 171.637 12.8H176.517ZM182.04 6.16V18H180.216V6.16H182.04ZM183.826 13.552C183.826 12.6667 184.008 11.8827 184.37 11.2C184.744 10.5173 185.245 9.98933 185.874 9.616C186.514 9.232 187.218 9.04 187.986 9.04C188.68 9.04 189.282 9.17867 189.794 9.456C190.317 9.72267 190.733 10.0587 191.042 10.464V9.184H192.882V18H191.042V16.688C190.733 17.104 190.312 17.4507 189.778 17.728C189.245 18.0053 188.637 18.144 187.954 18.144C187.197 18.144 186.504 17.952 185.874 17.568C185.245 17.1733 184.744 16.6293 184.37 15.936C184.008 15.232 183.826 14.4373 183.826 13.552ZM191.042 13.584C191.042 12.976 190.914 12.448 190.658 12C190.413 11.552 190.088 11.2107 189.682 10.976C189.277 10.7413 188.84 10.624 188.37 10.624C187.901 10.624 187.464 10.7413 187.058 10.976C186.653 11.2 186.322 11.536 186.066 11.984C185.821 12.4213 185.698 12.944 185.698 13.552C185.698 14.16 185.821 14.6933 186.066 15.152C186.322 15.6107 186.653 15.9627 187.058 16.208C187.474 16.4427 187.912 16.56 188.37 16.56C188.84 16.56 189.277 16.4427 189.682 16.208C190.088 15.9733 190.413 15.632 190.658 15.184C190.914 14.7253 191.042 14.192 191.042 13.584ZM197.406 10.672V15.552C197.406 15.8827 197.481 16.1227 197.63 16.272C197.79 16.4107 198.057 16.48 198.43 16.48H199.55V18H198.11C197.289 18 196.659 17.808 196.222 17.424C195.785 17.04 195.566 16.416 195.566 15.552V10.672H194.526V9.184H195.566V6.992H197.406V9.184H199.55V10.672H197.406ZM200.623 13.552C200.623 12.6667 200.805 11.8827 201.167 11.2C201.541 10.5173 202.042 9.98933 202.671 9.616C203.311 9.232 204.015 9.04 204.783 9.04C205.477 9.04 206.079 9.17867 206.591 9.456C207.114 9.72267 207.53 10.0587 207.839 10.464V9.184H209.679V18H207.839V16.688C207.53 17.104 207.109 17.4507 206.575 17.728C206.042 18.0053 205.434 18.144 204.751 18.144C203.994 18.144 203.301 17.952 202.671 17.568C202.042 17.1733 201.541 16.6293 201.167 15.936C200.805 15.232 200.623 14.4373 200.623 13.552ZM207.839 13.584C207.839 12.976 207.711 12.448 207.455 12C207.21 11.552 206.885 11.2107 206.479 10.976C206.074 10.7413 205.637 10.624 205.167 10.624C204.698 10.624 204.261 10.7413 203.855 10.976C203.45 11.2 203.119 11.536 202.863 11.984C202.618 12.4213 202.495 12.944 202.495 13.552C202.495 14.16 202.618 14.6933 202.863 15.152C203.119 15.6107 203.45 15.9627 203.855 16.208C204.271 16.4427 204.709 16.56 205.167 16.56C205.637 16.56 206.074 16.4427 206.479 16.208C206.885 15.9733 207.21 15.632 207.455 15.184C207.711 14.7253 207.839 14.192 207.839 13.584ZM216.523 9.04C217.216 9.04 217.835 9.184 218.379 9.472C218.934 9.76 219.366 10.1867 219.675 10.752C219.984 11.3173 220.139 12 220.139 12.8V18H218.331V13.072C218.331 12.2827 218.134 11.68 217.739 11.264C217.344 10.8373 216.806 10.624 216.123 10.624C215.44 10.624 214.896 10.8373 214.491 11.264C214.096 11.68 213.899 12.2827 213.899 13.072V18H212.075V9.184H213.899V10.192C214.198 9.82933 214.576 9.54667 215.035 9.344C215.504 9.14133 216 9.04 216.523 9.04Z" fill="#848484"/>
<defs>
<clipPath id="clip0_98_253">
<rect width="24" height="24" fill="white"/>
</clipPath>
</defs>
</svg>
