<svg width="336" height="24" viewBox="0 0 336 24" fill="none" xmlns="http://www.w3.org/2000/svg">
<g clip-path="url(#clip0_98_239)">
<path d="M12 1.99991C8.13 1.99991 5 5.12991 5 8.99991C5 14.2499 12 21.9999 12 21.9999C12 21.9999 19 14.2499 19 8.99991C19 5.12991 15.87 1.99991 12 1.99991ZM12 11.4999C10.62 11.4999 9.5 10.3799 9.5 8.99991C9.5 7.61991 10.62 6.49991 12 6.49991C13.38 6.49991 14.5 7.61991 14.5 8.99991C14.5 10.3799 13.38 11.4999 12 11.4999Z" fill="#848484"/>
</g>
<path d="M42.912 6.88V18H41.088V10.384L37.696 18H36.432L33.024 10.384V18H31.2V6.88H33.168L37.072 15.6L40.96 6.88H42.912ZM44.7014 13.552C44.7014 12.6667 44.8827 11.8827 45.2454 11.2C45.6187 10.5173 46.12 9.98933 46.7494 9.616C47.3894 9.232 48.0934 9.04 48.8614 9.04C49.5547 9.04 50.1574 9.17867 50.6694 9.456C51.192 9.72267 51.608 10.0587 51.9174 10.464V9.184H53.7574V18H51.9174V16.688C51.608 17.104 51.1867 17.4507 50.6534 17.728C50.12 18.0053 49.512 18.144 48.8294 18.144C48.072 18.144 47.3787 17.952 46.7494 17.568C46.12 17.1733 45.6187 16.6293 45.2454 15.936C44.8827 15.232 44.7014 14.4373 44.7014 13.552ZM51.9174 13.584C51.9174 12.976 51.7894 12.448 51.5334 12C51.288 11.552 50.9627 11.2107 50.5574 10.976C50.152 10.7413 49.7147 10.624 49.2454 10.624C48.776 10.624 48.3387 10.7413 47.9334 10.976C47.528 11.2 47.1974 11.536 46.9414 11.984C46.696 12.4213 46.5734 12.944 46.5734 13.552C46.5734 14.16 46.696 14.6933 46.9414 15.152C47.1974 15.6107 47.528 15.9627 47.9334 16.208C48.3494 16.4427 48.7867 16.56 49.2454 16.56C49.7147 16.56 50.152 16.4427 50.5574 16.208C50.9627 15.9733 51.288 15.632 51.5334 15.184C51.7894 14.7253 51.9174 14.192 51.9174 13.584ZM59.6411 13.6L63.7051 18H61.2411L57.9771 14.208V18H56.1531V6.16H57.9771V13.04L61.1771 9.184H63.7051L59.6411 13.6ZM64.4045 13.552C64.4045 12.6667 64.5858 11.8827 64.9485 11.2C65.3218 10.5173 65.8232 9.98933 66.4525 9.616C67.0925 9.232 67.7965 9.04 68.5645 9.04C69.2578 9.04 69.8605 9.17867 70.3725 9.456C70.8952 9.72267 71.3112 10.0587 71.6205 10.464V9.184H73.4605V18H71.6205V16.688C71.3112 17.104 70.8898 17.4507 70.3565 17.728C69.8232 18.0053 69.2152 18.144 68.5325 18.144C67.7752 18.144 67.0818 17.952 66.4525 17.568C65.8232 17.1733 65.3218 16.6293 64.9485 15.936C64.5858 15.232 64.4045 14.4373 64.4045 13.552ZM71.6205 13.584C71.6205 12.976 71.4925 12.448 71.2365 12C70.9912 11.552 70.6658 11.2107 70.2605 10.976C69.8552 10.7413 69.4178 10.624 68.9485 10.624C68.4792 10.624 68.0418 10.7413 67.6365 10.976C67.2312 11.2 66.9005 11.536 66.6445 11.984C66.3992 12.4213 66.2765 12.944 66.2765 13.552C66.2765 14.16 66.3992 14.6933 66.6445 15.152C66.9005 15.6107 67.2312 15.9627 67.6365 16.208C68.0525 16.4427 68.4898 16.56 68.9485 16.56C69.4178 16.56 69.8552 16.4427 70.2605 16.208C70.6658 15.9733 70.9912 15.632 71.2365 15.184C71.4925 14.7253 71.6205 14.192 71.6205 13.584ZM79.0563 18.144C78.3629 18.144 77.7389 18.0213 77.1843 17.776C76.6403 17.52 76.2083 17.1787 75.8883 16.752C75.5683 16.3147 75.3976 15.8293 75.3763 15.296H77.2643C77.2963 15.6693 77.4723 15.984 77.7923 16.24C78.1229 16.4853 78.5336 16.608 79.0243 16.608C79.5363 16.608 79.9309 16.512 80.2083 16.32C80.4963 16.1173 80.6403 15.8613 80.6403 15.552C80.6403 15.2213 80.4803 14.976 80.1603 14.816C79.8509 14.656 79.3549 14.48 78.6723 14.288C78.0109 14.1067 77.4723 13.9307 77.0563 13.76C76.6403 13.5893 76.2776 13.328 75.9683 12.976C75.6696 12.624 75.5203 12.16 75.5203 11.584C75.5203 11.1147 75.6589 10.688 75.9363 10.304C76.2136 9.90933 76.6083 9.6 77.1203 9.376C77.6429 9.152 78.2403 9.04 78.9123 9.04C79.9149 9.04 80.7203 9.296 81.3283 9.808C81.9469 10.3093 82.2776 10.9973 82.3203 11.872H80.4963C80.4643 11.4773 80.3043 11.1627 80.0163 10.928C79.7283 10.6933 79.3389 10.576 78.8483 10.576C78.3683 10.576 78.0003 10.6667 77.7443 10.848C77.4883 11.0293 77.3603 11.2693 77.3603 11.568C77.3603 11.8027 77.4456 12 77.6163 12.16C77.7869 12.32 77.9949 12.448 78.2403 12.544C78.4856 12.6293 78.8483 12.7413 79.3283 12.88C79.9683 13.0507 80.4909 13.2267 80.8963 13.408C81.3123 13.5787 81.6696 13.8347 81.9683 14.176C82.2669 14.5173 82.4216 14.9707 82.4323 15.536C82.4323 16.0373 82.2936 16.4853 82.0163 16.88C81.7389 17.2747 81.3443 17.584 80.8323 17.808C80.3309 18.032 79.7389 18.144 79.0563 18.144ZM87.6031 18.144C86.9098 18.144 86.2858 18.0213 85.7311 17.776C85.1871 17.52 84.7551 17.1787 84.4351 16.752C84.1151 16.3147 83.9445 15.8293 83.9231 15.296H85.8111C85.8431 15.6693 86.0191 15.984 86.3391 16.24C86.6698 16.4853 87.0805 16.608 87.5711 16.608C88.0831 16.608 88.4778 16.512 88.7551 16.32C89.0431 16.1173 89.1871 15.8613 89.1871 15.552C89.1871 15.2213 89.0271 14.976 88.7071 14.816C88.3978 14.656 87.9018 14.48 87.2191 14.288C86.5578 14.1067 86.0191 13.9307 85.6031 13.76C85.1871 13.5893 84.8245 13.328 84.5151 12.976C84.2165 12.624 84.0671 12.16 84.0671 11.584C84.0671 11.1147 84.2058 10.688 84.4831 10.304C84.7605 9.90933 85.1551 9.6 85.6671 9.376C86.1898 9.152 86.7871 9.04 87.4591 9.04C88.4618 9.04 89.2671 9.296 89.8751 9.808C90.4938 10.3093 90.8245 10.9973 90.8671 11.872H89.0431C89.0111 11.4773 88.8511 11.1627 88.5631 10.928C88.2751 10.6933 87.8858 10.576 87.3951 10.576C86.9151 10.576 86.5471 10.6667 86.2911 10.848C86.0351 11.0293 85.9071 11.2693 85.9071 11.568C85.9071 11.8027 85.9925 12 86.1631 12.16C86.3338 12.32 86.5418 12.448 86.7871 12.544C87.0325 12.6293 87.3951 12.7413 87.8751 12.88C88.5151 13.0507 89.0378 13.2267 89.4431 13.408C89.8591 13.5787 90.2165 13.8347 90.5151 14.176C90.8138 14.5173 90.9685 14.9707 90.9791 15.536C90.9791 16.0373 90.8405 16.4853 90.5631 16.88C90.2858 17.2747 89.8911 17.584 89.3791 17.808C88.8778 18.032 88.2858 18.144 87.6031 18.144ZM92.342 13.552C92.342 12.6667 92.5233 11.8827 92.886 11.2C93.2593 10.5173 93.7607 9.98933 94.39 9.616C95.03 9.232 95.734 9.04 96.502 9.04C97.1953 9.04 97.798 9.17867 98.31 9.456C98.8327 9.72267 99.2487 10.0587 99.558 10.464V9.184H101.398V18H99.558V16.688C99.2487 17.104 98.8273 17.4507 98.294 17.728C97.7607 18.0053 97.1527 18.144 96.47 18.144C95.7127 18.144 95.0193 17.952 94.39 17.568C93.7607 17.1733 93.2593 16.6293 92.886 15.936C92.5233 15.232 92.342 14.4373 92.342 13.552ZM99.558 13.584C99.558 12.976 99.43 12.448 99.174 12C98.9287 11.552 98.6033 11.2107 98.198 10.976C97.7927 10.7413 97.3553 10.624 96.886 10.624C96.4167 10.624 95.9793 10.7413 95.574 10.976C95.1687 11.2 94.838 11.536 94.582 11.984C94.3367 12.4213 94.214 12.944 94.214 13.552C94.214 14.16 94.3367 14.6933 94.582 15.152C94.838 15.6107 95.1687 15.9627 95.574 16.208C95.99 16.4427 96.4273 16.56 96.886 16.56C97.3553 16.56 97.7927 16.4427 98.198 16.208C98.6033 15.9733 98.9287 15.632 99.174 15.184C99.43 14.7253 99.558 14.192 99.558 13.584ZM105.618 10.464C105.884 10.016 106.236 9.66933 106.674 9.424C107.122 9.168 107.65 9.04 108.258 9.04V10.928H107.794C107.079 10.928 106.535 11.1093 106.162 11.472C105.799 11.8347 105.618 12.464 105.618 13.36V18H103.794V9.184H105.618V10.464ZM111.934 15.808L109.998 20.224H108.814L109.95 15.808H111.934ZM121.348 18.112C120.602 18.112 119.93 17.984 119.332 17.728C118.735 17.4613 118.266 17.088 117.924 16.608C117.583 16.128 117.412 15.568 117.412 14.928H119.364C119.407 15.408 119.594 15.8027 119.924 16.112C120.266 16.4213 120.74 16.576 121.348 16.576C121.978 16.576 122.468 16.4267 122.82 16.128C123.172 15.8187 123.348 15.424 123.348 14.944C123.348 14.5707 123.236 14.2667 123.012 14.032C122.799 13.7973 122.527 13.616 122.196 13.488C121.876 13.36 121.428 13.2213 120.852 13.072C120.127 12.88 119.535 12.688 119.076 12.496C118.628 12.2933 118.244 11.984 117.924 11.568C117.604 11.152 117.444 10.5973 117.444 9.904C117.444 9.264 117.604 8.704 117.924 8.224C118.244 7.744 118.692 7.376 119.268 7.12C119.844 6.864 120.511 6.736 121.268 6.736C122.346 6.736 123.226 7.008 123.908 7.552C124.602 8.08533 124.986 8.82133 125.06 9.76H123.044C123.012 9.35467 122.82 9.008 122.468 8.72C122.116 8.432 121.652 8.288 121.076 8.288C120.554 8.288 120.127 8.42133 119.796 8.688C119.466 8.95467 119.3 9.33867 119.3 9.84C119.3 10.1813 119.402 10.464 119.604 10.688C119.818 10.9013 120.084 11.072 120.404 11.2C120.724 11.328 121.162 11.4667 121.716 11.616C122.452 11.8187 123.05 12.0213 123.508 12.224C123.978 12.4267 124.372 12.7413 124.692 13.168C125.023 13.584 125.188 14.144 125.188 14.848C125.188 15.4133 125.034 15.9467 124.724 16.448C124.426 16.9493 123.983 17.3547 123.396 17.664C122.82 17.9627 122.138 18.112 121.348 18.112ZM135.325 9.184V18H133.501V16.96C133.213 17.3227 132.834 17.6107 132.365 17.824C131.906 18.0267 131.415 18.128 130.893 18.128C130.199 18.128 129.575 17.984 129.021 17.696C128.477 17.408 128.045 16.9813 127.725 16.416C127.415 15.8507 127.261 15.168 127.261 14.368V9.184H129.069V14.096C129.069 14.8853 129.266 15.4933 129.661 15.92C130.055 16.336 130.594 16.544 131.277 16.544C131.959 16.544 132.498 16.336 132.893 15.92C133.298 15.4933 133.501 14.8853 133.501 14.096V9.184H135.325ZM139.555 6.16V18H137.731V6.16H139.555ZM141.342 13.552C141.342 12.6667 141.523 11.8827 141.886 11.2C142.259 10.5173 142.761 9.98933 143.39 9.616C144.03 9.232 144.734 9.04 145.502 9.04C146.195 9.04 146.798 9.17867 147.31 9.456C147.833 9.72267 148.249 10.0587 148.558 10.464V9.184H150.398V18H148.558V16.688C148.249 17.104 147.827 17.4507 147.294 17.728C146.761 18.0053 146.153 18.144 145.47 18.144C144.713 18.144 144.019 17.952 143.39 17.568C142.761 17.1733 142.259 16.6293 141.886 15.936C141.523 15.232 141.342 14.4373 141.342 13.552ZM148.558 13.584C148.558 12.976 148.43 12.448 148.174 12C147.929 11.552 147.603 11.2107 147.198 10.976C146.793 10.7413 146.355 10.624 145.886 10.624C145.417 10.624 144.979 10.7413 144.574 10.976C144.169 11.2 143.838 11.536 143.582 11.984C143.337 12.4213 143.214 12.944 143.214 13.552C143.214 14.16 143.337 14.6933 143.582 15.152C143.838 15.6107 144.169 15.9627 144.574 16.208C144.99 16.4427 145.427 16.56 145.886 16.56C146.355 16.56 146.793 16.4427 147.198 16.208C147.603 15.9733 147.929 15.632 148.174 15.184C148.43 14.7253 148.558 14.192 148.558 13.584ZM164.634 9.184L161.898 18H159.978L158.202 11.488L156.426 18H154.506L151.754 9.184H153.61L155.45 16.272L157.322 9.184H159.226L161.018 16.24L162.842 9.184H164.634ZM174.077 13.376C174.077 13.7067 174.056 14.0053 174.013 14.272H167.277C167.33 14.976 167.592 15.5413 168.061 15.968C168.53 16.3947 169.106 16.608 169.789 16.608C170.77 16.608 171.464 16.1973 171.869 15.376H173.837C173.57 16.1867 173.085 16.8533 172.381 17.376C171.688 17.888 170.824 18.144 169.789 18.144C168.946 18.144 168.189 17.9573 167.517 17.584C166.856 17.2 166.333 16.6667 165.949 15.984C165.576 15.2907 165.389 14.4907 165.389 13.584C165.389 12.6773 165.57 11.8827 165.933 11.2C166.306 10.5067 166.824 9.97333 167.485 9.6C168.157 9.22667 168.925 9.04 169.789 9.04C170.621 9.04 171.362 9.22133 172.013 9.584C172.664 9.94667 173.17 10.4587 173.533 11.12C173.896 11.7707 174.077 12.5227 174.077 13.376ZM172.173 12.8C172.162 12.128 171.922 11.5893 171.453 11.184C170.984 10.7787 170.402 10.576 169.709 10.576C169.08 10.576 168.541 10.7787 168.093 11.184C167.645 11.5787 167.378 12.1173 167.293 12.8H172.173ZM179.072 18.144C178.379 18.144 177.755 18.0213 177.2 17.776C176.656 17.52 176.224 17.1787 175.904 16.752C175.584 16.3147 175.413 15.8293 175.392 15.296H177.28C177.312 15.6693 177.488 15.984 177.808 16.24C178.139 16.4853 178.549 16.608 179.04 16.608C179.552 16.608 179.947 16.512 180.224 16.32C180.512 16.1173 180.656 15.8613 180.656 15.552C180.656 15.2213 180.496 14.976 180.176 14.816C179.867 14.656 179.371 14.48 178.688 14.288C178.027 14.1067 177.488 13.9307 177.072 13.76C176.656 13.5893 176.293 13.328 175.984 12.976C175.685 12.624 175.536 12.16 175.536 11.584C175.536 11.1147 175.675 10.688 175.952 10.304C176.229 9.90933 176.624 9.6 177.136 9.376C177.659 9.152 178.256 9.04 178.928 9.04C179.931 9.04 180.736 9.296 181.344 9.808C181.963 10.3093 182.293 10.9973 182.336 11.872H180.512C180.48 11.4773 180.32 11.1627 180.032 10.928C179.744 10.6933 179.355 10.576 178.864 10.576C178.384 10.576 178.016 10.6667 177.76 10.848C177.504 11.0293 177.376 11.2693 177.376 11.568C177.376 11.8027 177.461 12 177.632 12.16C177.803 12.32 178.011 12.448 178.256 12.544C178.501 12.6293 178.864 12.7413 179.344 12.88C179.984 13.0507 180.507 13.2267 180.912 13.408C181.328 13.5787 181.685 13.8347 181.984 14.176C182.283 14.5173 182.437 14.9707 182.448 15.536C182.448 16.0373 182.309 16.4853 182.032 16.88C181.755 17.2747 181.36 17.584 180.848 17.808C180.347 18.032 179.755 18.144 179.072 18.144ZM185.347 8.016C185.016 8.016 184.739 7.904 184.515 7.68C184.291 7.456 184.179 7.17867 184.179 6.848C184.179 6.51733 184.291 6.24 184.515 6.016C184.739 5.792 185.016 5.68 185.347 5.68C185.667 5.68 185.939 5.792 186.163 6.016C186.387 6.24 186.499 6.51733 186.499 6.848C186.499 7.17867 186.387 7.456 186.163 7.68C185.939 7.904 185.667 8.016 185.347 8.016ZM186.243 9.184V18H184.419V9.184H186.243ZM196.458 18.112C195.711 18.112 195.039 17.984 194.442 17.728C193.844 17.4613 193.375 17.088 193.034 16.608C192.692 16.128 192.522 15.568 192.522 14.928H194.474C194.516 15.408 194.703 15.8027 195.034 16.112C195.375 16.4213 195.85 16.576 196.458 16.576C197.087 16.576 197.578 16.4267 197.93 16.128C198.282 15.8187 198.458 15.424 198.458 14.944C198.458 14.5707 198.346 14.2667 198.122 14.032C197.908 13.7973 197.636 13.616 197.306 13.488C196.986 13.36 196.538 13.2213 195.962 13.072C195.236 12.88 194.644 12.688 194.186 12.496C193.738 12.2933 193.354 11.984 193.034 11.568C192.714 11.152 192.554 10.5973 192.554 9.904C192.554 9.264 192.714 8.704 193.034 8.224C193.354 7.744 193.802 7.376 194.378 7.12C194.954 6.864 195.62 6.736 196.378 6.736C197.455 6.736 198.335 7.008 199.018 7.552C199.711 8.08533 200.095 8.82133 200.17 9.76H198.154C198.122 9.35467 197.93 9.008 197.578 8.72C197.226 8.432 196.762 8.288 196.186 8.288C195.663 8.288 195.236 8.42133 194.906 8.688C194.575 8.95467 194.41 9.33867 194.41 9.84C194.41 10.1813 194.511 10.464 194.714 10.688C194.927 10.9013 195.194 11.072 195.514 11.2C195.834 11.328 196.271 11.4667 196.826 11.616C197.562 11.8187 198.159 12.0213 198.618 12.224C199.087 12.4267 199.482 12.7413 199.802 13.168C200.132 13.584 200.298 14.144 200.298 14.848C200.298 15.4133 200.143 15.9467 199.834 16.448C199.535 16.9493 199.092 17.3547 198.506 17.664C197.93 17.9627 197.247 18.112 196.458 18.112ZM210.53 13.376C210.53 13.7067 210.509 14.0053 210.466 14.272H203.73C203.783 14.976 204.045 15.5413 204.514 15.968C204.983 16.3947 205.559 16.608 206.242 16.608C207.223 16.608 207.917 16.1973 208.322 15.376H210.29C210.023 16.1867 209.538 16.8533 208.834 17.376C208.141 17.888 207.277 18.144 206.242 18.144C205.399 18.144 204.642 17.9573 203.97 17.584C203.309 17.2 202.786 16.6667 202.402 15.984C202.029 15.2907 201.842 14.4907 201.842 13.584C201.842 12.6773 202.023 11.8827 202.386 11.2C202.759 10.5067 203.277 9.97333 203.938 9.6C204.61 9.22667 205.378 9.04 206.242 9.04C207.074 9.04 207.815 9.22133 208.466 9.584C209.117 9.94667 209.623 10.4587 209.986 11.12C210.349 11.7707 210.53 12.5227 210.53 13.376ZM208.626 12.8C208.615 12.128 208.375 11.5893 207.906 11.184C207.437 10.7787 206.855 10.576 206.162 10.576C205.533 10.576 204.994 10.7787 204.546 11.184C204.098 11.5787 203.831 12.1173 203.746 12.8H208.626ZM214.149 6.16V18H212.325V6.16H214.149ZM215.936 13.552C215.936 12.6667 216.117 11.8827 216.48 11.2C216.853 10.5173 217.354 9.98933 217.984 9.616C218.624 9.232 219.328 9.04 220.096 9.04C220.789 9.04 221.392 9.17867 221.904 9.456C222.426 9.72267 222.842 10.0587 223.152 10.464V9.184H224.992V18H223.152V16.688C222.842 17.104 222.421 17.4507 221.888 17.728C221.354 18.0053 220.746 18.144 220.064 18.144C219.306 18.144 218.613 17.952 217.984 17.568C217.354 17.1733 216.853 16.6293 216.48 15.936C216.117 15.232 215.936 14.4373 215.936 13.552ZM223.152 13.584C223.152 12.976 223.024 12.448 222.768 12C222.522 11.552 222.197 11.2107 221.792 10.976C221.386 10.7413 220.949 10.624 220.48 10.624C220.01 10.624 219.573 10.7413 219.168 10.976C218.762 11.2 218.432 11.536 218.176 11.984C217.93 12.4213 217.808 12.944 217.808 13.552C217.808 14.16 217.93 14.6933 218.176 15.152C218.432 15.6107 218.762 15.9627 219.168 16.208C219.584 16.4427 220.021 16.56 220.48 16.56C220.949 16.56 221.386 16.4427 221.792 16.208C222.197 15.9733 222.522 15.632 222.768 15.184C223.024 14.7253 223.152 14.192 223.152 13.584ZM229.516 10.672V15.552C229.516 15.8827 229.59 16.1227 229.74 16.272C229.9 16.4107 230.166 16.48 230.54 16.48H231.66V18H230.22C229.398 18 228.769 17.808 228.332 17.424C227.894 17.04 227.676 16.416 227.676 15.552V10.672H226.636V9.184H227.676V6.992H229.516V9.184H231.66V10.672H229.516ZM232.733 13.552C232.733 12.6667 232.914 11.8827 233.277 11.2C233.65 10.5173 234.151 9.98933 234.781 9.616C235.421 9.232 236.125 9.04 236.893 9.04C237.586 9.04 238.189 9.17867 238.701 9.456C239.223 9.72267 239.639 10.0587 239.949 10.464V9.184H241.789V18H239.949V16.688C239.639 17.104 239.218 17.4507 238.685 17.728C238.151 18.0053 237.543 18.144 236.861 18.144C236.103 18.144 235.41 17.952 234.781 17.568C234.151 17.1733 233.65 16.6293 233.277 15.936C232.914 15.232 232.733 14.4373 232.733 13.552ZM239.949 13.584C239.949 12.976 239.821 12.448 239.565 12C239.319 11.552 238.994 11.2107 238.589 10.976C238.183 10.7413 237.746 10.624 237.277 10.624C236.807 10.624 236.37 10.7413 235.965 10.976C235.559 11.2 235.229 11.536 234.973 11.984C234.727 12.4213 234.605 12.944 234.605 13.552C234.605 14.16 234.727 14.6933 234.973 15.152C235.229 15.6107 235.559 15.9627 235.965 16.208C236.381 16.4427 236.818 16.56 237.277 16.56C237.746 16.56 238.183 16.4427 238.589 16.208C238.994 15.9733 239.319 15.632 239.565 15.184C239.821 14.7253 239.949 14.192 239.949 13.584ZM248.632 9.04C249.326 9.04 249.944 9.184 250.488 9.472C251.043 9.76 251.475 10.1867 251.784 10.752C252.094 11.3173 252.248 12 252.248 12.8V18H250.44V13.072C250.44 12.2827 250.243 11.68 249.848 11.264C249.454 10.8373 248.915 10.624 248.232 10.624C247.55 10.624 247.006 10.8373 246.6 11.264C246.206 11.68 246.008 12.2827 246.008 13.072V18H244.184V9.184H246.008V10.192C246.307 9.82933 246.686 9.54667 247.144 9.344C247.614 9.14133 248.11 9.04 248.632 9.04Z" fill="#848484"/>
<defs>
<clipPath id="clip0_98_239">
<rect width="24" height="24" fill="white"/>
</clipPath>
</defs>
</svg>
