<svg width="32" height="32" viewBox="0 0 32 32" fill="none" xmlns="http://www.w3.org/2000/svg">
<path d="M24.5 14V3.5C24.5 1.575 22.925 0 21 0H10.5C8.575 0 7 1.575 7 3.5V7H3.5C1.575 7 0 8.575 0 10.5V28C0 29.925 1.575 31.5 3.5 31.5H12.25C13.2125 31.5 14 30.7125 14 29.75V24.5H17.5V29.75C17.5 30.7125 18.2875 31.5 19.25 31.5H28C29.925 31.5 31.5 29.925 31.5 28V17.5C31.5 15.575 29.925 14 28 14H24.5ZM7 28H3.5V24.5H7V28ZM7 21H3.5V17.5H7V21ZM7 14H3.5V10.5H7V14ZM14 21H10.5V17.5H14V21ZM14 14H10.5V10.5H14V14ZM14 7H10.5V3.5H14V7ZM21 21H17.5V17.5H21V21ZM21 14H17.5V10.5H21V14ZM21 7H17.5V3.5H21V7ZM28 28H24.5V24.5H28V28ZM28 21H24.5V17.5H28V21Z" fill="#DCAB89"/>
</svg>
